<mxfile host="app.diagrams.net" agent="Mozilla/5.0 (Macintosh; Intel Mac OS X 10_15_7) AppleWebKit/605.1.15 (KHTML, like Gecko) Version/18.0 Safari/605.1.15" version="25.0.3">
  <diagram name="Page-1" id="k65GpfhMpiqomPlUTcQ4">
    <mxGraphModel dx="646" dy="582" grid="1" gridSize="10" guides="1" tooltips="1" connect="1" arrows="1" fold="1" page="1" pageScale="1" pageWidth="827" pageHeight="1169" math="0" shadow="0">
      <root>
        <mxCell id="0" />
        <mxCell id="1" parent="0" />
        <mxCell id="_bfvzQfhDyjhuBuxaTwN-3" value="" style="rounded=0;whiteSpace=wrap;html=1;" vertex="1" parent="1">
          <mxGeometry y="100" width="10" height="300" as="geometry" />
        </mxCell>
        <mxCell id="_bfvzQfhDyjhuBuxaTwN-4" value="" style="shape=cube;whiteSpace=wrap;html=1;boundedLbl=1;backgroundOutline=1;darkOpacity=0.05;darkOpacity2=0.1;direction=east;size=10;" vertex="1" parent="1">
          <mxGeometry x="30" y="175" width="20" height="150" as="geometry" />
        </mxCell>
        <mxCell id="_bfvzQfhDyjhuBuxaTwN-7" value="" style="shape=cube;whiteSpace=wrap;html=1;boundedLbl=1;backgroundOutline=1;darkOpacity=0.05;darkOpacity2=0.1;" vertex="1" parent="1">
          <mxGeometry x="80" y="212.5" width="40" height="77.5" as="geometry" />
        </mxCell>
        <mxCell id="_bfvzQfhDyjhuBuxaTwN-9" value="" style="shape=cube;whiteSpace=wrap;html=1;boundedLbl=1;backgroundOutline=1;darkOpacity=0.05;darkOpacity2=0.1;" vertex="1" parent="1">
          <mxGeometry x="140" y="231.25" width="40" height="37.5" as="geometry" />
        </mxCell>
      </root>
    </mxGraphModel>
  </diagram>
</mxfile>
